<svg width="17" height="17" viewBox="0 0 17 17" fill="none" xmlns="http://www.w3.org/2000/svg">
<g clip-path="url(#clip0_1_1762)">
<path d="M5.69994 15.0225C11.7362 15.0225 15.0387 10.0204 15.0387 5.68379C15.0387 5.54317 15.0356 5.39942 15.0293 5.25879C15.6718 4.79419 16.2262 4.21872 16.6665 3.55942C16.0682 3.82562 15.4329 3.99947 14.7824 4.07504C15.4674 3.66449 15.9802 3.01953 16.2259 2.25973C15.5815 2.64159 14.8769 2.91096 14.1421 3.05629C13.6471 2.53026 12.9925 2.18196 12.2796 2.06525C11.5668 1.94854 10.8353 2.06992 10.1983 2.41062C9.56137 2.75131 9.05437 3.29236 8.75574 3.95009C8.4571 4.60783 8.38346 5.34563 8.54619 6.04942C7.2415 5.98395 5.96513 5.64502 4.79983 5.05462C3.63452 4.46421 2.6063 3.63551 1.78182 2.62223C1.36277 3.34471 1.23454 4.19965 1.42319 5.01328C1.61184 5.82691 2.10321 6.53818 2.79744 7.00254C2.27626 6.986 1.76649 6.84567 1.31025 6.59317V6.63379C1.30979 7.39199 1.5719 8.12694 2.05204 8.71373C2.53219 9.30052 3.20072 9.70293 3.944 9.85254C3.46121 9.98464 2.95449 10.0039 2.46307 9.90879C2.67281 10.5608 3.08089 11.1311 3.63035 11.5401C4.17982 11.9491 4.84325 12.1763 5.52807 12.19C4.36545 13.1033 2.92929 13.5986 1.45088 13.5963C1.1887 13.5959 0.92677 13.5798 0.666504 13.5482C2.16841 14.5117 3.91552 15.0235 5.69994 15.0225Z" fill="#232536"/>
</g>
<defs>
<clipPath id="clip0_1_1762">
<rect width="16" height="16" fill="white" transform="translate(0.666504 0.522461)"/>
</clipPath>
</defs>
</svg>
